# xmcd
# 
# Track frame offsets:
#     150
#     16562
#     35326
#     51304
#     75244
#     89257
#     103949
#     119833
#     143459
#     159542
#     174647
#     191496
#     207875
#     223473
#     243630
#     261141
#     281053
#     295658
#     313291
#     332617
# 
# Disc length: 4694
# 
# Revision: 3
# Processed by: cddbd v1.5.2PL0 Copyright (c) Steve Scherf et al.
# Submitted via: BonkEnc v1.0.8
# 
DISCID=28125414
DTITLE=staple singers - The Ultimate Staple Singers - A Family Affair 1955-1984 [CD2]
DYEAR=2004
DGENRE=R&B
TTITLE0=This World
TTITLE1=I Have Learned To Do Without You (Mavis Staples)
TTITLE2=Respect Yourself
TTITLE3=Tryin' Time (Pops Staples)
TTITLE4=Heavy Makes You Happy (Sha Na Boom Boom)
TTITLE5=I'll Take You There
TTITLE6=You've Got To Earn It
TTITLE7=The Only Time You Ever Say You Love Me (Mavis Staples)
TTITLE8=Oh La De Da
TTITLE9=If You're Ready (Come Go With Me)
TTITLE10=City In The Sky
TTITLE11=I Got To Be Myself
TTITLE12=Touch A Hand, Make A Friend
TTITLE13=Trippin' On Your Love (Mavis Staples)
TTITLE14=Let's Do It Again
TTITLE15=New Orleans
TTITLE16=Love Me, Love Me, Love Me
TTITLE17=I Honestly Love You
TTITLE18=Slippery People
TTITLE19=H-A-T-E (Don't Love Here Any More)
EXTD=
EXTT0=
EXTT1=
EXTT2=
EXTT3=
EXTT4=
EXTT5=
EXTT6=
EXTT7=
EXTT8=
EXTT9=
EXTT10=
EXTT11=
EXTT12=
EXTT13=
EXTT14=
EXTT15=
EXTT16=
EXTT17=
EXTT18=
EXTT19=
PLAYORDER=
